<?xml version="1.0" encoding="UTF-8"?>
<svg xmlns="http://www.w3.org/2000/svg" xmlns:xlink="http://www.w3.org/1999/xlink" width="16pt" height="16pt" viewBox="0 0 16 16" version="1.1">
<g id="surface5082429">
<path style=" stroke:none;fill-rule:nonzero;fill:rgb(100%,100%,100%);fill-opacity:1;" d="M 11.277344 1.050781 C 10.714844 1.332031 10.171875 1.742188 9.746094 2.238281 C 9.527344 2.492188 9.335938 2.777344 9.203125 3.082031 C 9.082031 3.035156 8.960938 3 8.84375 2.96875 L 8.851562 2.960938 C 8.304688 2.425781 7.46875 2 6.5 2 C 5.589844 2 4.679688 2.40625 3.988281 2.964844 C 3.644531 3.242188 3.355469 3.566406 3.164062 3.929688 C 2.976562 4.296875 2.886719 4.738281 3.023438 5.15625 C 3.15625 5.546875 3.394531 5.855469 3.695312 6.023438 C 3.4375 6.488281 3.113281 7.171875 3.003906 7.929688 C 2.746094 9.742188 2.867188 11.3125 3.273438 12.53125 C 3.683594 13.753906 4.386719 14.65625 5.339844 14.972656 C 5.914062 15.164062 6.523438 15.011719 7.140625 14.726562 C 7.757812 14.441406 8.398438 13.992188 9.019531 13.433594 C 10.265625 12.320312 11.433594 10.777344 11.972656 9.15625 C 12.042969 8.953125 12.039062 8.945312 12.082031 8.796875 C 12.152344 8.8125 12.21875 8.828125 12.292969 8.832031 C 12.667969 8.851562 13.042969 8.664062 13.351562 8.351562 C 13.671875 8.035156 13.789062 7.601562 13.792969 7.175781 C 13.796875 6.75 13.695312 6.3125 13.527344 5.882812 C 13.1875 5.027344 12.582031 4.195312 11.738281 3.785156 C 11.207031 3.527344 10.648438 3.441406 10.128906 3.460938 C 10.214844 3.273438 10.34375 3.078125 10.503906 2.886719 C 10.828125 2.507812 11.285156 2.167969 11.722656 1.945312 Z M 6.5 3 C 6.746094 3 6.984375 3.054688 7.207031 3.128906 C 7.195312 3.132812 7.183594 3.140625 7.171875 3.144531 C 6.566406 3.511719 6.242188 4.175781 6.152344 4.898438 C 5.523438 4.921875 4.984375 5.105469 4.613281 5.164062 C 4.382812 5.199219 4.242188 5.183594 4.183594 5.15625 C 4.121094 5.128906 4.058594 5.09375 3.972656 4.839844 C 3.9375 4.734375 3.949219 4.59375 4.050781 4.390625 C 4.15625 4.191406 4.359375 3.953125 4.621094 3.742188 C 5.144531 3.316406 5.910156 3 6.5 3 Z M 8.242188 3.871094 C 8.472656 3.882812 8.757812 3.957031 9.113281 4.128906 C 10.042969 4.585938 10.242188 4.9375 10.261719 5.175781 C 10.28125 5.417969 10.074219 5.8125 9.683594 6.28125 C 9.140625 6.933594 8.722656 7.335938 8.421875 7.496094 C 8.121094 7.65625 7.960938 7.660156 7.582031 7.488281 C 7.238281 7.328125 7.152344 7.1875 7.082031 6.8125 C 7.015625 6.441406 7.058594 5.847656 7.136719 5.074219 C 7.191406 4.542969 7.40625 4.171875 7.6875 4 C 7.832031 3.917969 8.007812 3.859375 8.242188 3.871094 Z M 11.136719 4.621094 C 11.191406 4.640625 11.246094 4.660156 11.300781 4.683594 C 11.808594 4.929688 12.335938 5.585938 12.597656 6.25 C 12.726562 6.582031 12.792969 6.914062 12.792969 7.164062 C 12.789062 7.417969 12.722656 7.570312 12.648438 7.644531 C 12.457031 7.835938 12.394531 7.835938 12.347656 7.832031 C 12.300781 7.832031 12.179688 7.785156 11.984375 7.636719 C 11.6875 7.40625 11.28125 6.980469 10.703125 6.605469 C 11.035156 6.164062 11.304688 5.679688 11.257812 5.097656 C 11.246094 4.933594 11.203125 4.773438 11.136719 4.621094 Z M 6.0625 5.910156 C 6.039062 6.296875 6.039062 6.65625 6.101562 6.988281 C 6.203125 7.578125 6.566406 8.121094 7.167969 8.394531 C 7.734375 8.660156 8.363281 8.660156 8.894531 8.375 C 9.296875 8.160156 9.652344 7.828125 10.050781 7.386719 C 10.488281 7.65625 10.839844 7.980469 11.195312 8.277344 C 11.15625 8.425781 11.132812 8.519531 11.027344 8.839844 C 10.566406 10.222656 9.484375 11.679688 8.355469 12.6875 C 7.789062 13.195312 7.210938 13.589844 6.71875 13.820312 C 6.226562 14.050781 5.835938 14.085938 5.65625 14.023438 C 5.113281 13.84375 4.566406 13.246094 4.222656 12.214844 C 3.882812 11.1875 3.753906 9.757812 3.996094 8.070312 C 4.105469 7.289062 4.613281 6.425781 4.789062 6.148438 C 5.230469 6.078125 5.660156 5.953125 6.0625 5.910156 Z M 6.0625 5.910156 "/>
</g>
</svg>
