<?xml version="1.0" encoding="UTF-8"?>
<svg xmlns="http://www.w3.org/2000/svg" xmlns:xlink="http://www.w3.org/1999/xlink" width="16pt" height="16pt" viewBox="0 0 16 16" version="1.1">
<g id="surface5081917">
<path style=" stroke:none;fill-rule:nonzero;fill:rgb(100%,100%,100%);fill-opacity:1;" d="M 8.25 3 C 6.105469 3 4 4.246094 4 6 L 4 7 C 3.464844 7.347656 3 8.183594 3 9.5 C 3 11.058594 3.972656 12.402344 5 12.5 L 5 6 C 5 4.511719 6.355469 3.988281 8.25 3.988281 C 10.144531 3.988281 11.5 4.515625 11.5 6 L 11.5 12.5 C 12.527344 12.402344 13.5 11.058594 13.5 9.5 C 13.5 8.183594 13.027344 7.328125 12.5 7 L 12.5 6 C 12.5 4.246094 10.394531 3 8.25 3 Z M 5 7 L 5 12.5 C 5.160156 12.453125 5.363281 12.332031 5.5 12.234375 L 5.5 7.28125 C 5.367188 7.183594 5.160156 7.046875 5 7 Z M 11.5 7.003906 C 11.339844 7.050781 11.144531 7.128906 11.007812 7.226562 L 11 12.28125 C 11.136719 12.378906 11.339844 12.449219 11.5 12.5 Z M 8.242188 6.5 L 7.5 10.5 L 6.5 7.5 L 6 9 L 6 11 L 6.5 9.003906 L 7.5 12 L 8.21875 9 L 9 12 L 10 9 L 10.5 11 L 10.5 9 L 10 7.5 L 9 10.5 Z M 8.242188 6.5 "/>
</g>
</svg>
