<?xml version="1.0" encoding="UTF-8"?>
<svg xmlns="http://www.w3.org/2000/svg" xmlns:xlink="http://www.w3.org/1999/xlink" width="16pt" height="16pt" viewBox="0 0 16 16" version="1.1">
<g id="surface5080792">
<path style=" stroke:none;fill-rule:nonzero;fill:rgb(100%,100%,100%);fill-opacity:1;" d="M 8 1.5 C 4.417969 1.5 1.5 4.417969 1.5 8 C 1.5 11.582031 4.417969 14.5 8 14.5 C 11.582031 14.5 14.5 11.582031 14.5 8 C 14.5 4.417969 11.582031 1.5 8 1.5 Z M 8 2.5 C 11.042969 2.5 13.5 4.957031 13.5 8 C 13.5 11.042969 11.042969 13.5 8 13.5 C 4.957031 13.5 2.5 11.042969 2.5 8 C 2.5 4.957031 4.957031 2.5 8 2.5 Z M 8 4 C 5.621094 4.417969 3.5 6.613281 3.5 9 C 4.664062 6.945312 5.441406 6.796875 5.65625 6.796875 C 5.871094 6.796875 5.984375 6.910156 5.984375 7.15625 L 5.984375 10.21875 C 5.984375 10.601562 5.242188 10.539062 5 10.5 C 5.902344 11.847656 8 12 8 12 L 9 11 L 10 11.5 C 11.578125 10.777344 12.5 9.230469 12.5 9 C 11.8125 9.757812 11.132812 10 11 10 C 10.867188 10 10.5 9.933594 10.5 9.75 L 10.5 6.125 C 10.5 5.8125 11.226562 4.851562 11.5 4.5 C 9.695312 4.972656 9.171875 5.796875 9.171875 5.796875 C 9.171875 5.796875 9.035156 5.5 8.5 5.5 C 8.699219 5.671875 9 6.136719 9 6.5 L 9 9.5625 C 9 9.5625 8.347656 10 8 10 C 7.652344 10 7.484375 9.859375 7.484375 9.59375 C 7.484375 9.328125 7.5 6 7.5 6 C 7.5 6 7 6.183594 7 5.15625 C 7 4.644531 8 4 8 4 Z M 8 4 "/>
</g>
</svg>
