<?xml version="1.0" encoding="UTF-8"?>
<svg xmlns="http://www.w3.org/2000/svg" xmlns:xlink="http://www.w3.org/1999/xlink" width="16pt" height="16pt" viewBox="0 0 16 16" version="1.1">
<g id="surface5043854">
<path style=" stroke:none;fill-rule:nonzero;fill:rgb(100%,100%,100%);fill-opacity:1;" d="M 3.199219 2.132812 C 2.609375 2.132812 2.132812 2.609375 2.132812 3.199219 L 2.132812 12.800781 C 2.132812 13.390625 2.609375 13.867188 3.199219 13.867188 L 12.800781 13.867188 C 13.390625 13.867188 13.867188 13.390625 13.867188 12.800781 L 13.867188 3.199219 C 13.867188 2.609375 13.390625 2.132812 12.800781 2.132812 Z M 4.265625 5.328125 L 6.386719 5.328125 C 7.4375 5.328125 8.15625 6.046875 8.15625 7.109375 C 8.15625 8.152344 7.414062 8.867188 6.347656 8.867188 L 5.207031 8.867188 L 5.207031 10.589844 L 4.265625 10.589844 Z M 5.207031 6.117188 L 5.207031 8.085938 L 6.136719 8.085938 C 6.808594 8.085938 7.203125 7.734375 7.203125 7.109375 C 7.203125 6.464844 6.820312 6.117188 6.140625 6.117188 Z M 10.242188 6.519531 C 11.191406 6.519531 11.785156 6.941406 11.851562 7.664062 L 11.003906 7.664062 C 10.9375 7.386719 10.671875 7.207031 10.246094 7.207031 C 9.835938 7.207031 9.527344 7.402344 9.527344 7.691406 C 9.527344 7.917969 9.714844 8.054688 10.117188 8.148438 L 10.820312 8.308594 C 11.582031 8.476562 11.933594 8.808594 11.933594 9.394531 C 11.933594 10.160156 11.230469 10.671875 10.238281 10.671875 C 9.242188 10.671875 8.613281 10.238281 8.542969 9.515625 L 9.4375 9.515625 C 9.527344 9.808594 9.804688 9.984375 10.257812 9.984375 C 10.714844 9.984375 11.03125 9.785156 11.03125 9.488281 C 11.03125 9.261719 10.859375 9.121094 10.480469 9.035156 L 9.773438 8.871094 C 9.007812 8.699219 8.648438 8.34375 8.648438 7.742188 C 8.648438 7.019531 9.304688 6.519531 10.242188 6.519531 Z M 10.242188 6.519531 "/>
</g>
</svg>
