<?xml version="1.0" encoding="UTF-8"?>
<svg xmlns="http://www.w3.org/2000/svg" xmlns:xlink="http://www.w3.org/1999/xlink" width="16pt" height="16pt" viewBox="0 0 16 16" version="1.1">
<g id="surface5081771">
<path style=" stroke:none;fill-rule:nonzero;fill:rgb(100%,100%,100%);fill-opacity:1;" d="M 3.199219 2.132812 C 2.609375 2.132812 2.132812 2.609375 2.132812 3.199219 L 2.132812 12.800781 C 2.132812 13.390625 2.609375 13.867188 3.199219 13.867188 L 12.800781 13.867188 C 13.390625 13.867188 13.867188 13.390625 13.867188 12.800781 L 13.867188 3.199219 C 13.867188 2.609375 13.390625 2.132812 12.800781 2.132812 Z M 10.484375 4.933594 C 10.816406 4.933594 11.042969 5.144531 11.042969 5.433594 C 11.042969 5.722656 10.816406 5.933594 10.484375 5.933594 C 10.15625 5.933594 9.929688 5.722656 9.929688 5.433594 C 9.929688 5.144531 10.15625 4.933594 10.484375 4.933594 Z M 6.289062 5.308594 L 7.347656 5.308594 L 9.214844 10.570312 L 8.207031 10.570312 L 7.761719 9.226562 L 5.828125 9.226562 L 5.375 10.570312 L 4.421875 10.570312 Z M 6.765625 6.308594 L 6.046875 8.480469 L 7.542969 8.480469 L 6.828125 6.308594 Z M 10.039062 6.582031 L 10.9375 6.582031 L 10.9375 10.570312 L 10.039062 10.570312 Z M 10.039062 6.582031 "/>
</g>
</svg>
