<?xml version="1.0" encoding="UTF-8"?>
<svg xmlns="http://www.w3.org/2000/svg" xmlns:xlink="http://www.w3.org/1999/xlink" width="16pt" height="16pt" viewBox="0 0 16 16" version="1.1">
<g id="surface5080604">
<path style=" stroke:none;fill-rule:nonzero;fill:rgb(100%,100%,100%);fill-opacity:1;" d="M 14.105469 8.066406 L 15.007812 6.539062 C 15.046875 6.460938 15.050781 6.375 15.023438 6.296875 L 13.234375 1.175781 C 13.179688 1.019531 13.015625 0.929688 12.859375 0.96875 L 7.605469 2.25 C 7.503906 2.273438 7.421875 2.34375 7.382812 2.441406 L 6.824219 3.839844 L 5.121094 3.839844 C 5.03125 3.839844 4.945312 3.878906 4.886719 3.941406 L 1.046875 8.101562 C 0.925781 8.230469 0.933594 8.429688 1.058594 8.550781 L 5.085938 12.390625 C 5.144531 12.449219 5.226562 12.480469 5.304688 12.480469 L 7.140625 12.480469 L 7.703125 13.878906 C 7.742188 13.984375 7.835938 14.054688 7.945312 14.074219 L 13.53125 15.035156 C 13.550781 15.039062 13.570312 15.039062 13.585938 15.039062 C 13.734375 15.039062 13.867188 14.9375 13.898438 14.789062 L 15.03125 9.59375 C 15.050781 9.515625 15.035156 9.429688 14.992188 9.359375 Z M 6.824219 3.839844 L 11.332031 3.015625 L 8.960938 7.679688 L 3.574219 7.679688 Z M 7.144531 12.480469 L 3.574219 8.960938 L 8.960938 8.960938 L 11.761719 13.171875 Z M 12.921875 12.449219 L 10.238281 8.320312 L 12.585938 3.652344 L 14.105469 8.066406 Z M 12.921875 12.449219 "/>
</g>
</svg>
