<?xml version="1.0" encoding="UTF-8"?>
<svg xmlns="http://www.w3.org/2000/svg" xmlns:xlink="http://www.w3.org/1999/xlink" width="16pt" height="16pt" viewBox="0 0 16 16" version="1.1">
<g id="surface5081219">
<path style=" stroke:none;fill-rule:nonzero;fill:rgb(100%,100%,100%);fill-opacity:1;" d="M 3.601562 2 C 2.992188 2.007812 2.492188 2.523438 2.5 3.132812 L 2.5 12.875 C 2.5 13.066406 2.546875 13.261719 2.644531 13.429688 C 2.945312 13.960938 3.632812 14.15625 4.167969 13.851562 L 12.984375 8.882812 C 12.988281 8.882812 12.988281 8.882812 12.988281 8.882812 C 13.148438 8.792969 13.277344 8.65625 13.367188 8.5 C 13.640625 8.019531 13.46875 7.390625 12.988281 7.117188 C 12.988281 7.117188 12.988281 7.117188 12.984375 7.117188 L 4.167969 2.144531 C 3.992188 2.046875 3.796875 2 3.605469 2 C 3.601562 2 3.601562 2 3.601562 2 Z M 3.617188 3 C 3.640625 3 3.660156 3.007812 3.675781 3.015625 L 12.492188 7.988281 C 12.503906 7.992188 12.507812 7.992188 12.5 8.007812 C 12.496094 8.011719 12.496094 8.011719 12.492188 8.015625 L 5 12.238281 L 5 10.597656 L 7.5 9.171875 L 7.5 8.023438 L 5 9.445312 L 5 6.625 C 5 6.554688 5.054688 6.503906 5.117188 6.5 C 5.136719 6.503906 5.15625 6.507812 5.175781 6.515625 L 7.5 7.828125 L 7.5 6.679688 L 5.667969 5.644531 C 5.496094 5.546875 5.3125 5.511719 5.101562 5.5 C 4.488281 5.507812 3.992188 6.015625 4 6.625 L 4 10.015625 L 3.5 10.300781 L 3.5 3.128906 C 3.5 3.125 3.5 3.121094 3.5 3.121094 C 3.5 3.046875 3.546875 3 3.617188 3 Z M 8.617188 6.5 C 8.273438 6.507812 7.996094 6.78125 8 7.117188 L 8 8.882812 C 8 9 8.03125 9.113281 8.09375 9.210938 C 8.210938 9.398438 8.414062 9.5 8.625 9.5 C 8.722656 9.5 8.820312 9.476562 8.914062 9.429688 L 10.679688 8.527344 C 10.679688 8.527344 10.679688 8.527344 10.683594 8.523438 C 10.777344 8.472656 10.855469 8.402344 10.910156 8.3125 C 10.996094 8.175781 11.023438 8.003906 10.980469 7.847656 C 10.9375 7.6875 10.828125 7.554688 10.679688 7.472656 L 8.917969 6.570312 C 8.824219 6.523438 8.71875 6.5 8.617188 6.5 Z M 4 11.167969 L 4 12.804688 L 3.675781 12.984375 L 3.671875 12.984375 C 3.613281 13.019531 3.550781 13.003906 3.515625 12.941406 C 3.507812 12.921875 3.5 12.902344 3.5 12.882812 C 3.5 12.878906 3.5 12.878906 3.5 12.878906 L 3.5 11.453125 Z M 4 11.167969 "/>
</g>
</svg>
